<svg width="220" height="52" viewBox="0 0 220 52" xmlns="http://www.w3.org/2000/svg" role="img" aria-label="AutoRoy">
  <defs>
    <linearGradient id="arGrad" x1="0%" y1="0%" x2="100%" y2="100%">
      <stop offset="0%" stop-color="#39D5C5"/>
      <stop offset="100%" stop-color="#7B55FF"/>
    </linearGradient>
    <filter id="soft" x="-20%" y="-20%" width="140%" height="140%">
      <feDropShadow dx="0" dy="2" stdDeviation="2.5" flood-color="rgba(0,0,0,.25)"/>
    </filter>
  </defs>

  <!-- עיגול עם גרדיאנט -->
  <circle cx="26" cy="26" r="22" fill="url(#arGrad)" filter="url(#soft)"/>

  <!-- האות A -->
  <path d="M16.5 36 L24.2 16.5a2 2 0 0 1 3.6 0L35.5 36h-5.4l-1.5-4.4h-8.2L19 36h-2.5zm9-8.8h6l-3-8.6-3 8.6z"
        fill="white" opacity=".98"/>

  <!-- רגל R פנימית (כדי לקרוא כ-AR) -->
  <path d="M31.5 27.2c4.9 0 7.4 2.2 7.4 6.2V36h-4.3v-2.5c0-2.4-1.6-3.6-4.8-3.6H27l1.1-2.7h3.4z"
        fill="white" opacity=".98"/>

  <!-- מילה AutoRoy (כיתוב פשוט בתוך ה-SVG) -->
  <g transform="translate(58,11)" fill="#0F1A33">
    <path d="M6.2 21l5.2-14.9h3.3L20 21h-3.1l-1-3H10.3l-1 3H6.2zm5-5.5h4.3L12.9 9.7 11.2 15.5z"/>
    <path d="M23.2 12.9c0-4 2.2-6.8 6.2-6.8s6.2 2.8 6.2 6.8v8.1h-3.1v-1.5c-1.1 1.2-2.5 1.9-4.3 1.9-3.1 0-5-1.8-5-4.4 0-2.5 1.8-4.1 5.3-4.4l4-.3v-.3c0-2-1.2-3.2-3.2-3.2-1.9 0-3.2 1.2-3.4 3h-2.7zm8.4 3.1-3.7.3c-1.9.2-2.7.9-2.7 2s.9 1.9 2.4 1.9c2.8 0 4-1.7 4-4.2v0z"/>
    <path d="M41.5 6.1h3.1v1.9c.9-1.4 2.3-2.1 4.1-2.1 1.7 0 3.2.7 4 2.1 1-1.4 2.6-2.1 4.4-2.1 3 0 5 2 5 5.4V21h-3.1v-9.3c0-1.9-1-3-2.7-3s-2.9 1.1-2.9 3.1V21H50.2v-9.3c0-1.9-1-3-2.7-3s-3 1.2-3 3.1V21h-3.1V6.1z"/>
    <path d="M70.1 0h3.2v21h-3.2V0z"/>
    <path d="M77.2 15.2c0-3.6 2.7-6.2 6.7-6.2 4 0 6.7 2.6 6.7 6.2s-2.7 6.2-6.7 6.2c-4 0-6.7-2.6-6.7-6.2zm10.2 0c0-2.1-1.5-3.6-3.5-3.6-2 0-3.5 1.5-3.5 3.6s1.5 3.6 3.5 3.6c2 0 3.5-1.5 3.5-3.6z"/>
    <path d="M93.8 9.3h3.1v1.8c.9-1.4 2.3-2.1 4.2-2.1 3.6 0 6 2.6 6 6.2S104.7 21 101 21c-1.8 0-3.2-.6-4.1-1.9v6.2h-3.1V9.3zm10.1 5.9c0-2.2-1.5-3.6-3.6-3.6-2.1 0-3.6 1.4-3.6 3.6 0 2.2 1.5 3.6 3.6 3.6 2.1 0 3.6-1.4 3.6-3.6z"/>
    <path d="M113.4 6.1h3.1v1.9c.9-1.3 2.2-2.1 4-2.1 3.1 0 5 2 5 5.4V21h-3.1v-9.3c0-2-1.1-3.1-2.9-3.1-1.8 0-3 1.2-3 3.1V21h-3.1V6.1z"/>
  </g>
</svg>
